<?xml version="1.0" encoding="UTF-8" standalone="no"?>
<!-- Created with Inkscape (http://www.inkscape.org/) -->

<svg
   xmlns:dc="http://purl.org/dc/elements/1.1/"
   xmlns:cc="http://creativecommons.org/ns#"
   xmlns:rdf="http://www.w3.org/1999/02/22-rdf-syntax-ns#"
   xmlns:svg="http://www.w3.org/2000/svg"
   xmlns="http://www.w3.org/2000/svg"
   xmlns:sodipodi="http://sodipodi.sourceforge.net/DTD/sodipodi-0.dtd"
   xmlns:inkscape="http://www.inkscape.org/namespaces/inkscape"
   width="64"
   height="64"
   viewBox="0 0 64.000001 64.000001"
   id="svg2"
   version="1.1"
   inkscape:version="0.91 r13725"
   inkscape:export-filename="D:\ajsb85\projects\teclib-resources\icon64.png"
   inkscape:export-xdpi="90"
   inkscape:export-ydpi="90"
   sodipodi:docname="icon64.svg">
  <defs
     id="defs4">
    <clipPath
       id="clipPath3350"
       clipPathUnits="userSpaceOnUse">
      <path
         inkscape:connector-curvature="0"
         id="path3352"
         d="m 0,373.481 640,0 L 640,0 0,0 0,373.481 Z" />
    </clipPath>
  </defs>
  <sodipodi:namedview
     id="base"
     pagecolor="#ffffff"
     bordercolor="#666666"
     borderopacity="1.0"
     inkscape:pageopacity="0.0"
     inkscape:pageshadow="2"
     inkscape:zoom="5.9375"
     inkscape:cx="22.430099"
     inkscape:cy="42.211183"
     inkscape:document-units="px"
     inkscape:current-layer="layer1"
     showgrid="false"
     units="px"
     inkscape:window-width="1021"
     inkscape:window-height="647"
     inkscape:window-x="2045"
     inkscape:window-y="249"
     inkscape:window-maximized="0" />
  <metadata
     id="metadata7">
    <rdf:RDF>
      <cc:Work
         rdf:about="">
        <dc:format>image/svg+xml</dc:format>
        <dc:type
           rdf:resource="http://purl.org/dc/dcmitype/StillImage" />
        <dc:title></dc:title>
      </cc:Work>
    </rdf:RDF>
  </metadata>
  <g
     inkscape:label="Capa 1"
     inkscape:groupmode="layer"
     id="layer1"
     transform="translate(0,-988.36216)">
    <g
       id="g4370"
       transform="matrix(0.32808519,0,0,0.32808519,-54.942538,912.17132)">
      <path
         d="m 296.10076,247.79858 c -3.8525,-0.12375 -7.335,-1.3875 -10.5925,-3.18 l -0.001,0 -22.66875,-11.275 c -5.83,-2.89875 -10.59625,0.0538 -10.59625,6.5625 l 0,23.535 c 0,6.51125 4.72,14.29625 10.49375,17.305 l 22.8725,11.92375 c 0.51875,0.27 1.02875,0.4925 1.5275,0.67 2.81,1.23125 5.77375,2.02625 8.965,2.03 l 0,-47.57125 z"
         style="fill:#bcda1a;fill-opacity:1;fill-rule:nonzero;stroke:none"
         id="path3356"
         inkscape:connector-curvature="0" />
      <path
         d="m 296.10076,310.89183 c -3.8525,-0.12375 -7.335,-1.38875 -10.5925,-3.18125 l -0.001,0 -53.525,-28.215 c -5.82875,-2.89875 -10.595,0.0525 -10.595,6.56375 l 0,26.54625 c 0,6.51 4.72125,14.2975 10.4925,17.30625 l 53.72875,28.865 c 0.51875,0.27 1.02875,0.4925 1.5275,0.66875 2.81,1.23125 5.77375,2.025 8.965,2.02875 l 0,-50.5825 z"
         style="fill:#9021a3;fill-opacity:1;fill-rule:nonzero;stroke:none"
         id="path3360"
         inkscape:connector-curvature="0" />
      <path
         d="m 296.10076,376.71758 c -3.8525,-0.12375 -7.335,-1.38875 -10.5925,-3.18125 l -0.001,0 -85.80125,-47.60875 c -5.82875,-2.89875 -10.595,0.0538 -10.595,6.5625 l 0,26.5475 c 0,6.51 4.72125,14.29625 10.4925,17.305 l 86.005,48.25875 c 0.51875,0.27 1.02875,0.4913 1.5275,0.6688 2.81,1.2325 5.77375,2.025 8.965,2.03 l 0,-50.58255 z"
         style="fill:#9021a3;fill-opacity:1;fill-rule:nonzero;stroke:none"
         id="path3364"
         inkscape:connector-curvature="0" />
      <path
         d="m 330.29026,233.5957 -23.59125,11.71125 -0.009,0.0138 c -3.85125,1.8825 -7.35125,2.5825 -10.59,2.4775 l 0,47.57125 c 3.2175,0.004 6.6625,-0.79625 10.4125,-2.76375 0.0263,-0.015 0.0538,-0.0263 0.08,-0.0412 l 23.80375,-12.3925 c 5.76875,-3.00875 10.4925,-10.79125 10.4925,-17.30125 l 0,-22.70375 c 0,-6.51 -4.76875,-9.46625 -10.59875,-6.57125"
         style="fill:#dae412;fill-opacity:1;fill-rule:nonzero;stroke:none"
         id="path3368"
         inkscape:connector-curvature="0" />
      <path
         d="m 330.29026,296.6877 -23.59125,11.71375 -0.009,0.0113 c -3.85125,1.8825 -7.35125,2.5825 -10.59,2.47875 l 0,50.58375 c 3.2175,0.004 6.6625,-0.7975 10.4125,-2.765 l 0.08,-0.0412 23.80375,-12.39375 c 5.76875,-3.00625 10.4925,-10.78875 10.4925,-17.3 l 0,-25.715 c 0,-6.51 -4.76875,-9.46625 -10.59875,-6.5725"
         style="fill:#a65db7;fill-opacity:1;fill-rule:nonzero;stroke:none"
         id="path3372"
         inkscape:connector-curvature="0" />
      <path
         d="m 330.29026,362.51358 -23.59125,11.7125 -0.009,0.0138 c -3.85125,1.88 -7.35125,2.58125 -10.59,2.4775 l 0,50.5825 c 3.2175,0 6.6625,-0.7963 10.4125,-2.765 l 0.08,-0.04 23.80375,-12.3925 c 5.76875,-3.0088 10.4925,-10.7913 10.4925,-17.3025 l 0,-25.715 c 0,-6.50875 -4.76875,-9.46625 -10.59875,-6.57125"
         style="fill:#a65db7;fill-opacity:1;fill-rule:nonzero;stroke:none"
         id="path3376"
         inkscape:connector-curvature="0" />
    </g>
  </g>
</svg>
