<svg xmlns="http://www.w3.org/2000/svg" xmlns:svg="http://www.w3.org/2000/svg" id="svg4301" width="16" height="16" version="1.1" viewBox="0 0 16 16"><metadata id="metadata4306"/><g style="fill:#444;fill-opacity:1" id="g3532" transform="matrix(0.0820213,0,0,0.0820213,-13.735635,-19.047712)"><path id="path3356" d="m 296.10076,247.79858 c -3.8525,-0.12375 -7.335,-1.3875 -10.5925,-3.18 l -0.001,0 -22.66875,-11.275 c -5.83,-2.89875 -10.59625,0.0538 -10.59625,6.5625 l 0,23.535 c 0,6.51125 4.72,14.29625 10.49375,17.305 l 22.8725,11.92375 c 0.51875,0.27 1.02875,0.4925 1.5275,0.67 2.81,1.23125 5.77375,2.02625 8.965,2.03 l 0,-47.57125 z" style="fill:#444;fill-opacity:1;fill-rule:nonzero;stroke:none"/><path id="path3360" d="m 296.10076,310.89183 c -3.8525,-0.12375 -7.335,-1.38875 -10.5925,-3.18125 l -0.001,0 -53.525,-28.215 c -5.82875,-2.89875 -10.595,0.0525 -10.595,6.56375 l 0,26.54625 c 0,6.51 4.72125,14.2975 10.4925,17.30625 l 53.72875,28.865 c 0.51875,0.27 1.02875,0.4925 1.5275,0.66875 2.81,1.23125 5.77375,2.025 8.965,2.02875 l 0,-50.5825 z" style="fill:#444;fill-opacity:1;fill-rule:nonzero;stroke:none"/><path id="path3364" d="m 296.10076,376.71758 c -3.8525,-0.12375 -7.335,-1.38875 -10.5925,-3.18125 l -0.001,0 -85.80125,-47.60875 c -5.82875,-2.89875 -10.595,0.0538 -10.595,6.5625 l 0,26.5475 c 0,6.51 4.72125,14.29625 10.4925,17.305 l 86.005,48.25875 c 0.51875,0.27 1.02875,0.4913 1.5275,0.6688 2.81,1.2325 5.77375,2.025 8.965,2.03 l 0,-50.58255 z" style="fill:#444;fill-opacity:1;fill-rule:nonzero;stroke:none"/><path id="path3368" d="m 330.29026,233.5957 -23.59125,11.71125 -0.009,0.0138 c -3.85125,1.8825 -7.35125,2.5825 -10.59,2.4775 l 0,47.57125 c 3.2175,0.004 6.6625,-0.79625 10.4125,-2.76375 0.0263,-0.015 0.0538,-0.0263 0.08,-0.0412 l 23.80375,-12.3925 c 5.76875,-3.00875 10.4925,-10.79125 10.4925,-17.30125 l 0,-22.70375 c 0,-6.51 -4.76875,-9.46625 -10.59875,-6.57125" style="fill:#444;fill-opacity:1;fill-rule:nonzero;stroke:none"/><path id="path3372" d="m 330.29026,296.6877 -23.59125,11.71375 -0.009,0.0113 c -3.85125,1.8825 -7.35125,2.5825 -10.59,2.47875 l 0,50.58375 c 3.2175,0.004 6.6625,-0.7975 10.4125,-2.765 l 0.08,-0.0412 23.80375,-12.39375 c 5.76875,-3.00625 10.4925,-10.78875 10.4925,-17.3 l 0,-25.715 c 0,-6.51 -4.76875,-9.46625 -10.59875,-6.5725" style="fill:#444;fill-opacity:1;fill-rule:nonzero;stroke:none"/><path id="path3376" d="m 330.29026,362.51358 -23.59125,11.7125 -0.009,0.0138 c -3.85125,1.88 -7.35125,2.58125 -10.59,2.4775 l 0,50.5825 c 3.2175,0 6.6625,-0.7963 10.4125,-2.765 l 0.08,-0.04 23.80375,-12.3925 c 5.76875,-3.0088 10.4925,-10.7913 10.4925,-17.3025 l 0,-25.715 c 0,-6.50875 -4.76875,-9.46625 -10.59875,-6.57125" style="fill:#444;fill-opacity:1;fill-rule:nonzero;stroke:none"/></g></svg>